# xmcd CD database file
#
# Track frame offsets:
#	150
#	12375
#	24420
#	38672
#	49682
#	67710
#	81242
#	94642
#	113193
#	124954
#	135980
#	151437
#	166041
#	175282
#
# Disc length: 2542 seconds
#
# Revision: 0
# Processed by: cddbd v1.5.2PL0 Copyright (c) Steve Scherf et al.
# Submitted via: CDex 1.51
#
DISCID=a409ec0e
DTITLE=Dale Watson - Call Me Insane
DYEAR=2015
DGENRE=Country
TTITLE0=A Day At A Time
TTITLE1=Bug Ya For Love
TTITLE2=Burden of the Cross
TTITLE3=Everybody's Somebody In Luckenbach Texas
TTITLE4=Crocodile Tears
TTITLE5=Jonesin' For Jones
TTITLE6=I'm Through Hurtin'
TTITLE7=Call Me Insane
TTITLE8=Heaven's Gonna Have A Honky Tonk
TTITLE9=Tienes Cabeza de Palo
TTITLE10=I Owe It All To You
TTITLE11=Forever Valentine
TTITLE12=Hot Dang
TTITLE13=Dale Watson - Mamas Don't Let Your Cowboys Grow Up To Be Babies
EXTD=YEAR: 2015
EXTT0=
EXTT1=
EXTT2=
EXTT3=
EXTT4=
EXTT5=
EXTT6=
EXTT7=
EXTT8=
EXTT9=
EXTT10=
EXTT11=
EXTT12=
EXTT13=
PLAYORDER=
